<svg xmlns="http://www.w3.org/2000/svg" viewBox="0 0 24 24"><path d="M24 18.588c-1.811-.654-2.739-1.266-2.739-2.798 0-1.278 1.042-2.165 2.639-2.165.966 0 1.718.312 2.332.936l-.936.936c-.416-.416-.936-.624-1.456-.624-.832 0-1.248.416-1.248 1.04 0 .624.416.936 1.666 1.352 1.666.52 2.498 1.248 2.498 2.698 0 1.456-1.144 2.332-2.708 2.332-1.144 0-2.072-.416-2.708-1.248l1.042-.832c.416.624 1.042.936 1.666.936.832 0 1.352-.416 1.352-1.144 0-.624-.416-.936-1.666-1.352zM14.88 16.864c0 1.666-1.248 2.708-3.12 2.708-1.872 0-3.12-1.042-3.12-2.708v-5.104h1.456v5.104c0 .936.624 1.456 1.666 1.456s1.666-.52 1.666-1.456v-5.104h1.456v5.104zM7.104 11.76c0-.416-.312-.728-.728-.728s-.728.312-.728.728.312.728.728.728.728-.312.728-.728zm0 7.812c0-.416-.312-.728-.728-.728s-.728.312-.728.728.312.728.728.728.728-.312.728-.728zm0-3.12c0-.416-.312-.728-.728-.728s-.728.312-.728.728.312.728.728.728.728-.312.728-.728z"/></svg>
