<svg xmlns="http://www.w3.org/2000/svg" viewBox="0 0 24 24"><path d="M23.546 10.93L13.067.452c-.6-.6-1.535-.6-2.135 0L8.838 2.544l2.718 2.718c.806-.272 1.727-.09 2.366.55.642.64.822 1.563.546 2.366l2.622 2.622c.803-.276 1.727-.097 2.366.546.895.895.895 2.35 0 3.246-.896.896-2.35.896-3.247 0-.617-.617-.822-1.504-.617-2.298l-2.45-2.45v6.44c.22.108.426.258.603.435.895.895.895 2.35 0 3.247-.896.896-2.352.896-3.247 0-.895-.896-.895-2.35 0-3.247.223-.223.48-.388.756-.498V8.4c-.276-.11-.533-.275-.756-.498-.624-.624-.835-1.511-.608-2.31L5.753 2.877.452 8.177c-.6.6-.6 1.535 0 2.135l10.48 10.48c.6.6 1.534.6 2.134 0l10.48-10.48c.6-.6.6-1.535 0-2.135z"/></svg>
