<svg xmlns="http://www.w3.org/2000/svg" viewBox="0 0 24 24"><path d="M17.197 7.438c-.274-.614-.637-1.185-1.09-1.686-.532-.585-1.134-1.083-1.795-1.476-.819-.493-1.729-.801-2.673-.904-.896-.097-1.801.022-2.642.347-.841.325-1.594.846-2.197 1.525-.603.679-1.038 1.493-1.268 2.376-.23.883-.247 1.808-.051 2.699.196.891.571 1.724 1.095 2.444.524.72 1.184 1.31 1.938 1.734.754.424 1.584.671 2.438.724.854.053 1.708-.089 2.495-.416.787-.327 1.485-.828 2.043-1.463.558-.635.962-1.387 1.18-2.197.218-.81.245-1.658.079-2.48-.166-.822-.509-1.594-1.003-2.267zm-1.945 2.4c-.099.447-.311.862-.618 1.206-.307.344-.698.606-1.132.762-.434.156-.901.201-1.358.132-.457-.069-.889-.246-1.259-.515-.37-.269-.669-.621-.872-1.027-.203-.406-.304-.856-.294-1.31.01-.454.13-.898.352-1.293.222-.395.539-.729.923-.969.384-.24.823-.378 1.276-.402.453-.024.904.066 1.312.262.408.196.761.492 1.027.862.266.37.438.801.502 1.254.064.453.019.916-.132 1.348z"/><path d="M12.001 7.438c-.274-.614-.637-1.185-1.09-1.686-.532-.585-1.134-1.083-1.795-1.476-.819-.493-1.729-.801-2.673-.904-.896-.097-1.801.022-2.642.347-.841.325-1.594.846-2.197 1.525-.603.679-1.038 1.493-1.268 2.376-.23.883-.247 1.808-.051 2.699.196.891.571 1.724 1.095 2.444.524.72 1.184 1.31 1.938 1.734.754.424 1.584.671 2.438.724.854.053 1.708-.089 2.495-.416.787-.327 1.485-.828 2.043-1.463.558-.635.962-1.387 1.18-2.197.218-.81.245-1.658.079-2.48-.166-.822-.509-1.594-1.003-2.267zm-1.945 2.4c-.099.447-.311.862-.618 1.206-.307.344-.698.606-1.132.762-.434.156-.901.201-1.358.132-.457-.069-.889-.246-1.259-.515-.37-.269-.669-.621-.872-1.027-.203-.406-.304-.856-.294-1.31.01-.454.13-.898.352-1.293.222-.395.539-.729.923-.969.384-.24.823-.378 1.276-.402.453-.024.904.066 1.312.262.408.196.761.492 1.027.862.266.37.438.801.502 1.254.064.453.019.916-.132 1.348z"/></svg>
