<svg xmlns="http://www.w3.org/2000/svg" viewBox="0 0 24 24"><path d="M11.998 24c-.566 0-1.132-.134-1.636-.402l-5.198-3.072A3.28 3.28 0 0 1 3.5 17.66V6.34c0-1.2.643-2.313 1.664-2.866l5.198-3.072a3.285 3.285 0 0 1 3.272 0l5.198 3.072A3.28 3.28 0 0 1 20.5 6.34v11.32c0 1.2-.643 2.313-1.664 2.866l-5.198 3.072a3.27 3.27 0 0 1-1.632.402zm0-1.5c.28 0 .56-.066.816-.198l5.198-3.072c.508-.3.816-.85.816-1.44V6.34c0-.59-.308-1.14-.816-1.44l-5.198-3.072a1.5 1.5 0 0 0-1.632 0l-5.198 3.072c-.508.3-.816.85-.816 1.44v11.32c0 .59.308 1.14.816 1.44l5.198 3.072c.256.132.536.198.816.198z"/><path d="M12.015 18.56c-1.856 0-2.94-.848-3.108-2.394l1.692-.098c.112.672.588 1.008 1.35 1.008.756 0 1.248-.336 1.248-.882 0-.27-.096-.468-.288-.594-.192-.126-.516-.258-.972-.396-.84-.252-1.428-.474-1.764-.666-.336-.192-.582-.432-.738-.72-.156-.288-.234-.648-.234-1.08 0-.432.108-.816.324-1.152.216-.336.516-.594.9-.774.384-.18.822-.27 1.314-.27 1.716 0 2.724.78 3.024 2.34l-1.632.156c-.12-.624-.552-.936-1.296-.936-.672 0-1.008.312-1.008.738 0 .24.09.426.27.558.18.132.498.264.954.396.864.264 1.464.498 1.8.702.336.204.582.45.738.738.156.288.234.648.234 1.08 0 .456-.108.864-.324 1.224-.216.36-.516.642-.9.846-.384.204-.834.306-1.35.306z"/></svg>
