<svg xmlns="http://www.w3.org/2000/svg" viewBox="0 0 24 24"><path d="M14.23 12.004a2.236 2.236 0 0 1-2.236 2.236 2.236 2.236 0 0 1-2.236-2.236 2.236 2.236 0 0 1 2.236-2.236 2.236 2.236 0 0 1 2.236 2.236Zm2.648-10.69c-2.81.73-5.469 2.01-7.819 3.798C6.91 7.904 5.33 10.59 4.568 13.57c.761 2.98 2.342 5.666 4.491 7.459 2.35 1.788 5.009 3.068 7.819 3.798 2.81-.73 5.469-2.01 7.819-3.798 2.15-1.793 3.73-4.479 4.491-7.459-.761-2.98-2.342-5.666-4.491-7.459-2.35-1.788-5.009-3.068-7.819-3.798zM12 3.466c4.305 0 7.796 3.49 7.796 7.796s-3.49 7.796-7.796 7.796-7.796-3.49-7.796-7.796 3.49-7.796 7.796-7.796zm0 13.473c3.131 0 5.677-2.546 5.677-5.677s-2.546-5.677-5.677-5.677-5.677 2.546-5.677 5.677 2.546 5.677 5.677 5.677z"/></svg>
