<svg xmlns="http://www.w3.org/2000/svg" viewBox="0 0 24 24"><path d="M1.125 0C.502 0 0 .502 0 1.125v21.75C0 23.498.502 24 1.125 24h21.75c.623 0 1.125-.502 1.125-1.125V1.125C24 .502 23.498 0 22.875 0zm17.363 9.75c.612 0 1.154.037 1.627.111a6.38 6.38 0 0 1 1.306.34v2.458a3.95 3.95 0 0 0-.643-.361 4.6 4.6 0 0 0-.717-.26 5.443 5.443 0 0 0-.809-.164 5.06 5.06 0 0 0-.855-.072c-.563 0-1.04.103-1.431.311-.39.208-.585.55-.585 1.026 0 .258.09.47.27.636.18.166.423.311.729.435.306.124.653.242 1.041.354.388.112.775.25 1.162.414.387.164.734.36 1.041.588.306.228.549.506.729.834.18.328.27.735.27 1.221 0 .657-.125 1.21-.373 1.656a3.033 3.033 0 0 1-1.012 1.085 4.38 4.38 0 0 1-1.487.596c-.566.12-1.163.18-1.79.18a9.916 9.916 0 0 1-1.84-.164 5.544 5.544 0 0 1-1.512-.493v-2.63c.201.132.462.25.783.354.321.104.639.192.955.264.316.072.625.125.928.158.302.033.58.049.832.049.525 0 .924-.074 1.198-.222.274-.148.411-.4.411-.756 0-.258-.09-.471-.27-.639-.18-.168-.423-.317-.729-.447-.306-.13-.653-.258-1.041-.384a8.794 8.794 0 0 1-1.162-.456 4.18 4.18 0 0 1-1.041-.648 2.913 2.913 0 0 1-.729-.937c-.18-.367-.27-.813-.27-1.34 0-.647.125-1.188.373-1.624.248-.436.585-.788 1.012-1.054.426-.266.923-.456 1.49-.571.566-.115 1.163-.172 1.79-.172zm-15.113.188h9.563v2.166H9.506v9.646H6.938v-9.646H3.375V9.938z"/></svg>
